%TF.GenerationSoftware,KiCad,Pcbnew,(5.1.6)-1*%
%TF.CreationDate,2020-11-13T23:51:03+05:30*%
%TF.ProjectId,Bot_Controller,426f745f-436f-46e7-9472-6f6c6c65722e,rev?*%
%TF.SameCoordinates,Original*%
%TF.FileFunction,Legend,Bot*%
%TF.FilePolarity,Positive*%
%FSLAX46Y46*%
G04 Gerber Fmt 4.6, Leading zero omitted, Abs format (unit mm)*
G04 Created by KiCad (PCBNEW (5.1.6)-1) date 2020-11-13 23:51:03*
%MOMM*%
%LPD*%
G01*
G04 APERTURE LIST*
%ADD10C,0.150000*%
G04 APERTURE END LIST*
D10*
X67488580Y-34045139D02*
X67583819Y-33997520D01*
X67679057Y-33902281D01*
X67821914Y-33759424D01*
X67917152Y-33711805D01*
X68012390Y-33711805D01*
X67964771Y-33949900D02*
X68060009Y-33902281D01*
X68155247Y-33807043D01*
X68202866Y-33616567D01*
X68202866Y-33283234D01*
X68155247Y-33092758D01*
X68060009Y-32997520D01*
X67964771Y-32949900D01*
X67774295Y-32949900D01*
X67679057Y-32997520D01*
X67583819Y-33092758D01*
X67536200Y-33283234D01*
X67536200Y-33616567D01*
X67583819Y-33807043D01*
X67679057Y-33902281D01*
X67774295Y-33949900D01*
X67964771Y-33949900D01*
X67107628Y-33568948D02*
X66345723Y-33568948D01*
X65536200Y-33426091D02*
X65393342Y-33473710D01*
X65345723Y-33521329D01*
X65298104Y-33616567D01*
X65298104Y-33759424D01*
X65345723Y-33854662D01*
X65393342Y-33902281D01*
X65488580Y-33949900D01*
X65869533Y-33949900D01*
X65869533Y-32949900D01*
X65536200Y-32949900D01*
X65440961Y-32997520D01*
X65393342Y-33045139D01*
X65345723Y-33140377D01*
X65345723Y-33235615D01*
X65393342Y-33330853D01*
X65440961Y-33378472D01*
X65536200Y-33426091D01*
X65869533Y-33426091D01*
X64726676Y-33949900D02*
X64821914Y-33902281D01*
X64869533Y-33854662D01*
X64917152Y-33759424D01*
X64917152Y-33473710D01*
X64869533Y-33378472D01*
X64821914Y-33330853D01*
X64726676Y-33283234D01*
X64583819Y-33283234D01*
X64488580Y-33330853D01*
X64440961Y-33378472D01*
X64393342Y-33473710D01*
X64393342Y-33759424D01*
X64440961Y-33854662D01*
X64488580Y-33902281D01*
X64583819Y-33949900D01*
X64726676Y-33949900D01*
X64107628Y-33283234D02*
X63726676Y-33283234D01*
X63964771Y-32949900D02*
X63964771Y-33807043D01*
X63917152Y-33902281D01*
X63821914Y-33949900D01*
X63726676Y-33949900D01*
X62060009Y-33854662D02*
X62107628Y-33902281D01*
X62250485Y-33949900D01*
X62345723Y-33949900D01*
X62488580Y-33902281D01*
X62583819Y-33807043D01*
X62631438Y-33711805D01*
X62679057Y-33521329D01*
X62679057Y-33378472D01*
X62631438Y-33187996D01*
X62583819Y-33092758D01*
X62488580Y-32997520D01*
X62345723Y-32949900D01*
X62250485Y-32949900D01*
X62107628Y-32997520D01*
X62060009Y-33045139D01*
X61488580Y-33949900D02*
X61583819Y-33902281D01*
X61631438Y-33854662D01*
X61679057Y-33759424D01*
X61679057Y-33473710D01*
X61631438Y-33378472D01*
X61583819Y-33330853D01*
X61488580Y-33283234D01*
X61345723Y-33283234D01*
X61250485Y-33330853D01*
X61202866Y-33378472D01*
X61155247Y-33473710D01*
X61155247Y-33759424D01*
X61202866Y-33854662D01*
X61250485Y-33902281D01*
X61345723Y-33949900D01*
X61488580Y-33949900D01*
X60726676Y-33283234D02*
X60726676Y-33949900D01*
X60726676Y-33378472D02*
X60679057Y-33330853D01*
X60583819Y-33283234D01*
X60440961Y-33283234D01*
X60345723Y-33330853D01*
X60298104Y-33426091D01*
X60298104Y-33949900D01*
X59964771Y-33283234D02*
X59583819Y-33283234D01*
X59821914Y-32949900D02*
X59821914Y-33807043D01*
X59774295Y-33902281D01*
X59679057Y-33949900D01*
X59583819Y-33949900D01*
X59250485Y-33949900D02*
X59250485Y-33283234D01*
X59250485Y-33473710D02*
X59202866Y-33378472D01*
X59155247Y-33330853D01*
X59060009Y-33283234D01*
X58964771Y-33283234D01*
X58488580Y-33949900D02*
X58583819Y-33902281D01*
X58631438Y-33854662D01*
X58679057Y-33759424D01*
X58679057Y-33473710D01*
X58631438Y-33378472D01*
X58583819Y-33330853D01*
X58488580Y-33283234D01*
X58345723Y-33283234D01*
X58250485Y-33330853D01*
X58202866Y-33378472D01*
X58155247Y-33473710D01*
X58155247Y-33759424D01*
X58202866Y-33854662D01*
X58250485Y-33902281D01*
X58345723Y-33949900D01*
X58488580Y-33949900D01*
X57583819Y-33949900D02*
X57679057Y-33902281D01*
X57726676Y-33807043D01*
X57726676Y-32949900D01*
X56440961Y-33949900D02*
X56440961Y-32949900D01*
X56060009Y-32949900D01*
X55964771Y-32997520D01*
X55917152Y-33045139D01*
X55869533Y-33140377D01*
X55869533Y-33283234D01*
X55917152Y-33378472D01*
X55964771Y-33426091D01*
X56060009Y-33473710D01*
X56440961Y-33473710D01*
X54869533Y-33854662D02*
X54917152Y-33902281D01*
X55060009Y-33949900D01*
X55155247Y-33949900D01*
X55298104Y-33902281D01*
X55393342Y-33807043D01*
X55440961Y-33711805D01*
X55488580Y-33521329D01*
X55488580Y-33378472D01*
X55440961Y-33187996D01*
X55393342Y-33092758D01*
X55298104Y-32997520D01*
X55155247Y-32949900D01*
X55060009Y-32949900D01*
X54917152Y-32997520D01*
X54869533Y-33045139D01*
X54107628Y-33426091D02*
X53964771Y-33473710D01*
X53917152Y-33521329D01*
X53869533Y-33616567D01*
X53869533Y-33759424D01*
X53917152Y-33854662D01*
X53964771Y-33902281D01*
X54060009Y-33949900D01*
X54440961Y-33949900D01*
X54440961Y-32949900D01*
X54107628Y-32949900D01*
X54012390Y-32997520D01*
X53964771Y-33045139D01*
X53917152Y-33140377D01*
X53917152Y-33235615D01*
X53964771Y-33330853D01*
X54012390Y-33378472D01*
X54107628Y-33426091D01*
X54440961Y-33426091D01*
M02*
