%TF.GenerationSoftware,KiCad,Pcbnew,(5.1.6)-1*%
%TF.CreationDate,2020-11-13T23:51:03+05:30*%
%TF.ProjectId,Bot_Controller,426f745f-436f-46e7-9472-6f6c6c65722e,rev?*%
%TF.SameCoordinates,Original*%
%TF.FileFunction,Soldermask,Bot*%
%TF.FilePolarity,Negative*%
%FSLAX46Y46*%
G04 Gerber Fmt 4.6, Leading zero omitted, Abs format (unit mm)*
G04 Created by KiCad (PCBNEW (5.1.6)-1) date 2020-11-13 23:51:03*
%MOMM*%
%LPD*%
G01*
G04 APERTURE LIST*
%ADD10O,1.700000X1.700000*%
%ADD11R,1.700000X1.700000*%
%ADD12O,1.800000X1.800000*%
%ADD13R,1.800000X1.800000*%
G04 APERTURE END LIST*
D10*
%TO.C,A1*%
X43256200Y-41371520D03*
X43256200Y-26131520D03*
X78816200Y-41371520D03*
X45796200Y-26131520D03*
X76276200Y-41371520D03*
X48336200Y-26131520D03*
X73736200Y-41371520D03*
X50876200Y-26131520D03*
X71196200Y-41371520D03*
X53416200Y-26131520D03*
X68656200Y-41371520D03*
X55956200Y-26131520D03*
X66116200Y-41371520D03*
X58496200Y-26131520D03*
X63576200Y-41371520D03*
X61036200Y-26131520D03*
X61036200Y-41371520D03*
X63576200Y-26131520D03*
X58496200Y-41371520D03*
X66116200Y-26131520D03*
X55956200Y-41371520D03*
X68656200Y-26131520D03*
X53416200Y-41371520D03*
X71196200Y-26131520D03*
X50876200Y-41371520D03*
X73736200Y-26131520D03*
X48336200Y-41371520D03*
X76276200Y-26131520D03*
X45796200Y-41371520D03*
D11*
X78816200Y-26131520D03*
%TD*%
D12*
%TO.C,J1*%
X76276200Y-46197520D03*
D13*
X78816200Y-46197520D03*
%TD*%
D12*
%TO.C,LF1*%
X93548200Y-26004520D03*
X91008200Y-26004520D03*
D13*
X88468200Y-26004520D03*
%TD*%
D12*
%TO.C,LF2*%
X101168200Y-26004520D03*
X103708200Y-26004520D03*
D13*
X106248200Y-26004520D03*
%TD*%
D12*
%TO.C,LB1*%
X125552200Y-41625520D03*
X128092200Y-41625520D03*
D13*
X130632200Y-41625520D03*
%TD*%
D12*
%TO.C,LB2*%
X117932200Y-41625520D03*
X115392200Y-41625520D03*
D13*
X112852200Y-41625520D03*
%TD*%
D12*
%TO.C,J6*%
X117932200Y-25877520D03*
X115392200Y-25877520D03*
D13*
X112852200Y-25877520D03*
%TD*%
D12*
%TO.C,RF2*%
X125552200Y-25877520D03*
X128092200Y-25877520D03*
D13*
X130632200Y-25877520D03*
%TD*%
D12*
%TO.C,RB1*%
X101168200Y-41625520D03*
X103708200Y-41625520D03*
D13*
X106248200Y-41625520D03*
%TD*%
D12*
%TO.C,RB2*%
X93548200Y-41625520D03*
X91008200Y-41625520D03*
D13*
X88468200Y-41625520D03*
%TD*%
D12*
%TO.C,J11*%
X68656200Y-46197520D03*
X66116200Y-46197520D03*
X63576200Y-46197520D03*
X61036200Y-46197520D03*
X58496200Y-46197520D03*
X55956200Y-46197520D03*
X53416200Y-46197520D03*
D13*
X50876200Y-46197520D03*
%TD*%
D10*
%TO.C,U1*%
X130632200Y-37561520D03*
X112852200Y-29941520D03*
X128092200Y-37561520D03*
X115392200Y-29941520D03*
X125552200Y-37561520D03*
X117932200Y-29941520D03*
X123012200Y-37561520D03*
X120472200Y-29941520D03*
X120472200Y-37561520D03*
X123012200Y-29941520D03*
X117932200Y-37561520D03*
X125552200Y-29941520D03*
X115392200Y-37561520D03*
X128092200Y-29941520D03*
X112852200Y-37561520D03*
D11*
X130632200Y-29941520D03*
%TD*%
D10*
%TO.C,U2*%
X106248200Y-37561520D03*
X88468200Y-29941520D03*
X103708200Y-37561520D03*
X91008200Y-29941520D03*
X101168200Y-37561520D03*
X93548200Y-29941520D03*
X98628200Y-37561520D03*
X96088200Y-29941520D03*
X96088200Y-37561520D03*
X98628200Y-29941520D03*
X93548200Y-37561520D03*
X101168200Y-29941520D03*
X91008200Y-37561520D03*
X103708200Y-29941520D03*
X88468200Y-37561520D03*
D11*
X106248200Y-29941520D03*
%TD*%
D12*
%TO.C,J10*%
X30556200Y-29941520D03*
X33096200Y-29941520D03*
X30556200Y-32481520D03*
X33096200Y-32481520D03*
X30556200Y-35021520D03*
X33096200Y-35021520D03*
X30556200Y-37561520D03*
D13*
X33096200Y-37561520D03*
%TD*%
%TO.C,J2*%
X37668200Y-46197520D03*
D12*
X40208200Y-46197520D03*
X42748200Y-46197520D03*
X45288200Y-46197520D03*
%TD*%
M02*
