M48
; DRILL file {KiCad (5.1.6)-1} date 11/13/20 23:51:02
; FORMAT={-:-/ absolute / inch / decimal}
; #@! TF.CreationDate,2020-11-13T23:51:02+05:30
; #@! TF.GenerationSoftware,Kicad,Pcbnew,(5.1.6)-1
; #@! TF.FileFunction,Plated,1,2,PTH
FMAT,2
INCH
T1C0.0315
T2C0.0394
%
G90
G05
T1
X3.483Y-1.1788
X3.483Y-1.4788
X3.583Y-1.1788
X3.583Y-1.4788
X3.683Y-1.1788
X3.683Y-1.4788
X3.783Y-1.1788
X3.783Y-1.4788
X3.883Y-1.1788
X3.883Y-1.4788
X3.983Y-1.1788
X3.983Y-1.4788
X4.083Y-1.1788
X4.083Y-1.4788
X4.183Y-1.1788
X4.183Y-1.4788
X4.443Y-1.1788
X4.443Y-1.4788
X4.543Y-1.1788
X4.543Y-1.4788
X4.643Y-1.1788
X4.643Y-1.4788
X4.743Y-1.1788
X4.743Y-1.4788
X4.843Y-1.1788
X4.843Y-1.4788
X4.943Y-1.1788
X4.943Y-1.4788
X5.043Y-1.1788
X5.043Y-1.4788
X5.143Y-1.1788
X5.143Y-1.4788
T2
X2.003Y-1.8188
X2.103Y-1.8188
X2.203Y-1.8188
X2.303Y-1.8188
X2.403Y-1.8188
X2.503Y-1.8188
X2.603Y-1.8188
X2.703Y-1.8188
X3.483Y-1.0238
X3.583Y-1.0238
X3.683Y-1.0238
X3.983Y-1.6388
X4.083Y-1.6388
X4.183Y-1.6388
X3.003Y-1.8188
X3.103Y-1.8188
X3.483Y-1.6388
X3.583Y-1.6388
X3.683Y-1.6388
X4.943Y-1.0188
X5.043Y-1.0188
X5.143Y-1.0188
X4.443Y-1.6388
X4.543Y-1.6388
X4.643Y-1.6388
X1.703Y-1.0288
X1.703Y-1.6288
X1.803Y-1.0288
X1.803Y-1.6288
X1.903Y-1.0288
X1.903Y-1.6288
X2.003Y-1.0288
X2.003Y-1.6288
X2.103Y-1.0288
X2.103Y-1.6288
X2.203Y-1.0288
X2.203Y-1.6288
X2.303Y-1.0288
X2.303Y-1.6288
X2.403Y-1.0288
X2.403Y-1.6288
X2.503Y-1.0288
X2.503Y-1.6288
X2.603Y-1.0288
X2.603Y-1.6288
X2.703Y-1.0288
X2.703Y-1.6288
X2.803Y-1.0288
X2.803Y-1.6288
X2.903Y-1.0288
X2.903Y-1.6288
X3.003Y-1.0288
X3.003Y-1.6288
X3.103Y-1.0288
X3.103Y-1.6288
X4.443Y-1.0188
X4.543Y-1.0188
X4.643Y-1.0188
X1.203Y-1.1788
X1.203Y-1.2788
X1.203Y-1.3788
X1.203Y-1.4788
X1.303Y-1.1788
X1.303Y-1.2788
X1.303Y-1.3788
X1.303Y-1.4788
X4.943Y-1.6388
X5.043Y-1.6388
X5.143Y-1.6388
X1.483Y-1.8188
X1.583Y-1.8188
X1.683Y-1.8188
X1.783Y-1.8188
X3.983Y-1.0238
X4.083Y-1.0238
X4.183Y-1.0238
T0
M30
