%FSLAX45Y45*%
G04 Gerber Fmt 4.5, Leading zero omitted, Abs format (unit mm)*
G04 Created by KiCad (PCBNEW (5.1.6)-1) date 2020-11-13 23:51:01*
%MOMM*%
%LPD*%
G01*
G04 APERTURE LIST*
%TA.AperFunction,Profile*%
%ADD10C,0.050000*%
%TD*%
%ADD11C,0.200000*%
%ADD12C,0.300000*%
G04 APERTURE END LIST*
D10*
X2750820Y-4822952D02*
X2750820Y-2232152D01*
X13469620Y-4822952D02*
X2750820Y-4822952D01*
X13469620Y-4467352D02*
X13469620Y-4822952D01*
X13469620Y-2232152D02*
X13469620Y-4467352D01*
X2750820Y-2232152D02*
X13469620Y-2232152D01*
D11*
X8806820Y-2954152D02*
X8886820Y-3034152D01*
X8886820Y-2954152D02*
X8806820Y-3034152D01*
X8806820Y-3716152D02*
X8886820Y-3796152D01*
X8886820Y-3716152D02*
X8806820Y-3796152D01*
X9060820Y-2954152D02*
X9140820Y-3034152D01*
X9140820Y-2954152D02*
X9060820Y-3034152D01*
X9060820Y-3716152D02*
X9140820Y-3796152D01*
X9140820Y-3716152D02*
X9060820Y-3796152D01*
X9314820Y-2954152D02*
X9394820Y-3034152D01*
X9394820Y-2954152D02*
X9314820Y-3034152D01*
X9314820Y-3716152D02*
X9394820Y-3796152D01*
X9394820Y-3716152D02*
X9314820Y-3796152D01*
X9568820Y-2954152D02*
X9648820Y-3034152D01*
X9648820Y-2954152D02*
X9568820Y-3034152D01*
X9568820Y-3716152D02*
X9648820Y-3796152D01*
X9648820Y-3716152D02*
X9568820Y-3796152D01*
X9822820Y-2954152D02*
X9902820Y-3034152D01*
X9902820Y-2954152D02*
X9822820Y-3034152D01*
X9822820Y-3716152D02*
X9902820Y-3796152D01*
X9902820Y-3716152D02*
X9822820Y-3796152D01*
X10076820Y-2954152D02*
X10156820Y-3034152D01*
X10156820Y-2954152D02*
X10076820Y-3034152D01*
X10076820Y-3716152D02*
X10156820Y-3796152D01*
X10156820Y-3716152D02*
X10076820Y-3796152D01*
X10330820Y-2954152D02*
X10410820Y-3034152D01*
X10410820Y-2954152D02*
X10330820Y-3034152D01*
X10330820Y-3716152D02*
X10410820Y-3796152D01*
X10410820Y-3716152D02*
X10330820Y-3796152D01*
X10584820Y-2954152D02*
X10664820Y-3034152D01*
X10664820Y-2954152D02*
X10584820Y-3034152D01*
X10584820Y-3716152D02*
X10664820Y-3796152D01*
X10664820Y-3716152D02*
X10584820Y-3796152D01*
X11245220Y-2954152D02*
X11325220Y-3034152D01*
X11325220Y-2954152D02*
X11245220Y-3034152D01*
X11245220Y-3716152D02*
X11325220Y-3796152D01*
X11325220Y-3716152D02*
X11245220Y-3796152D01*
X11499220Y-2954152D02*
X11579220Y-3034152D01*
X11579220Y-2954152D02*
X11499220Y-3034152D01*
X11499220Y-3716152D02*
X11579220Y-3796152D01*
X11579220Y-3716152D02*
X11499220Y-3796152D01*
X11753220Y-2954152D02*
X11833220Y-3034152D01*
X11833220Y-2954152D02*
X11753220Y-3034152D01*
X11753220Y-3716152D02*
X11833220Y-3796152D01*
X11833220Y-3716152D02*
X11753220Y-3796152D01*
X12007220Y-2954152D02*
X12087220Y-3034152D01*
X12087220Y-2954152D02*
X12007220Y-3034152D01*
X12007220Y-3716152D02*
X12087220Y-3796152D01*
X12087220Y-3716152D02*
X12007220Y-3796152D01*
X12261220Y-2954152D02*
X12341220Y-3034152D01*
X12341220Y-2954152D02*
X12261220Y-3034152D01*
X12261220Y-3716152D02*
X12341220Y-3796152D01*
X12341220Y-3716152D02*
X12261220Y-3796152D01*
X12515220Y-2954152D02*
X12595220Y-3034152D01*
X12595220Y-2954152D02*
X12515220Y-3034152D01*
X12515220Y-3716152D02*
X12595220Y-3796152D01*
X12595220Y-3716152D02*
X12515220Y-3796152D01*
X12769220Y-2954152D02*
X12849220Y-3034152D01*
X12849220Y-2954152D02*
X12769220Y-3034152D01*
X12769220Y-3716152D02*
X12849220Y-3796152D01*
X12849220Y-3716152D02*
X12769220Y-3796152D01*
X13023220Y-2954152D02*
X13103220Y-3034152D01*
X13103220Y-2954152D02*
X13023220Y-3034152D01*
X13023220Y-3716152D02*
X13103220Y-3796152D01*
X13103220Y-3716152D02*
X13023220Y-3796152D01*
X5137620Y-4619752D02*
G75*
G03*
X5137620Y-4619752I-50000J0D01*
G01*
X5391620Y-4619752D02*
G75*
G03*
X5391620Y-4619752I-50000J0D01*
G01*
X5645620Y-4619752D02*
G75*
G03*
X5645620Y-4619752I-50000J0D01*
G01*
X5899620Y-4619752D02*
G75*
G03*
X5899620Y-4619752I-50000J0D01*
G01*
X6153620Y-4619752D02*
G75*
G03*
X6153620Y-4619752I-50000J0D01*
G01*
X6407620Y-4619752D02*
G75*
G03*
X6407620Y-4619752I-50000J0D01*
G01*
X6661620Y-4619752D02*
G75*
G03*
X6661620Y-4619752I-50000J0D01*
G01*
X6915620Y-4619752D02*
G75*
G03*
X6915620Y-4619752I-50000J0D01*
G01*
X8896820Y-2600452D02*
G75*
G03*
X8896820Y-2600452I-50000J0D01*
G01*
X9150820Y-2600452D02*
G75*
G03*
X9150820Y-2600452I-50000J0D01*
G01*
X9404820Y-2600452D02*
G75*
G03*
X9404820Y-2600452I-50000J0D01*
G01*
X10166820Y-4162552D02*
G75*
G03*
X10166820Y-4162552I-50000J0D01*
G01*
X10420820Y-4162552D02*
G75*
G03*
X10420820Y-4162552I-50000J0D01*
G01*
X10674820Y-4162552D02*
G75*
G03*
X10674820Y-4162552I-50000J0D01*
G01*
X7677620Y-4619752D02*
G75*
G03*
X7677620Y-4619752I-50000J0D01*
G01*
X7931620Y-4619752D02*
G75*
G03*
X7931620Y-4619752I-50000J0D01*
G01*
X8896820Y-4162552D02*
G75*
G03*
X8896820Y-4162552I-50000J0D01*
G01*
X9150820Y-4162552D02*
G75*
G03*
X9150820Y-4162552I-50000J0D01*
G01*
X9404820Y-4162552D02*
G75*
G03*
X9404820Y-4162552I-50000J0D01*
G01*
X12605220Y-2587752D02*
G75*
G03*
X12605220Y-2587752I-50000J0D01*
G01*
X12859220Y-2587752D02*
G75*
G03*
X12859220Y-2587752I-50000J0D01*
G01*
X13113220Y-2587752D02*
G75*
G03*
X13113220Y-2587752I-50000J0D01*
G01*
X11335220Y-4162552D02*
G75*
G03*
X11335220Y-4162552I-50000J0D01*
G01*
X11589220Y-4162552D02*
G75*
G03*
X11589220Y-4162552I-50000J0D01*
G01*
X11843220Y-4162552D02*
G75*
G03*
X11843220Y-4162552I-50000J0D01*
G01*
X4375620Y-2613152D02*
G75*
G03*
X4375620Y-2613152I-50000J0D01*
G01*
X4375620Y-4137152D02*
G75*
G03*
X4375620Y-4137152I-50000J0D01*
G01*
X4629620Y-2613152D02*
G75*
G03*
X4629620Y-2613152I-50000J0D01*
G01*
X4629620Y-4137152D02*
G75*
G03*
X4629620Y-4137152I-50000J0D01*
G01*
X4883620Y-2613152D02*
G75*
G03*
X4883620Y-2613152I-50000J0D01*
G01*
X4883620Y-4137152D02*
G75*
G03*
X4883620Y-4137152I-50000J0D01*
G01*
X5137620Y-2613152D02*
G75*
G03*
X5137620Y-2613152I-50000J0D01*
G01*
X5137620Y-4137152D02*
G75*
G03*
X5137620Y-4137152I-50000J0D01*
G01*
X5391620Y-2613152D02*
G75*
G03*
X5391620Y-2613152I-50000J0D01*
G01*
X5391620Y-4137152D02*
G75*
G03*
X5391620Y-4137152I-50000J0D01*
G01*
X5645620Y-2613152D02*
G75*
G03*
X5645620Y-2613152I-50000J0D01*
G01*
X5645620Y-4137152D02*
G75*
G03*
X5645620Y-4137152I-50000J0D01*
G01*
X5899620Y-2613152D02*
G75*
G03*
X5899620Y-2613152I-50000J0D01*
G01*
X5899620Y-4137152D02*
G75*
G03*
X5899620Y-4137152I-50000J0D01*
G01*
X6153620Y-2613152D02*
G75*
G03*
X6153620Y-2613152I-50000J0D01*
G01*
X6153620Y-4137152D02*
G75*
G03*
X6153620Y-4137152I-50000J0D01*
G01*
X6407620Y-2613152D02*
G75*
G03*
X6407620Y-2613152I-50000J0D01*
G01*
X6407620Y-4137152D02*
G75*
G03*
X6407620Y-4137152I-50000J0D01*
G01*
X6661620Y-2613152D02*
G75*
G03*
X6661620Y-2613152I-50000J0D01*
G01*
X6661620Y-4137152D02*
G75*
G03*
X6661620Y-4137152I-50000J0D01*
G01*
X6915620Y-2613152D02*
G75*
G03*
X6915620Y-2613152I-50000J0D01*
G01*
X6915620Y-4137152D02*
G75*
G03*
X6915620Y-4137152I-50000J0D01*
G01*
X7169620Y-2613152D02*
G75*
G03*
X7169620Y-2613152I-50000J0D01*
G01*
X7169620Y-4137152D02*
G75*
G03*
X7169620Y-4137152I-50000J0D01*
G01*
X7423620Y-2613152D02*
G75*
G03*
X7423620Y-2613152I-50000J0D01*
G01*
X7423620Y-4137152D02*
G75*
G03*
X7423620Y-4137152I-50000J0D01*
G01*
X7677620Y-2613152D02*
G75*
G03*
X7677620Y-2613152I-50000J0D01*
G01*
X7677620Y-4137152D02*
G75*
G03*
X7677620Y-4137152I-50000J0D01*
G01*
X7931620Y-2613152D02*
G75*
G03*
X7931620Y-2613152I-50000J0D01*
G01*
X7931620Y-4137152D02*
G75*
G03*
X7931620Y-4137152I-50000J0D01*
G01*
X11335220Y-2587752D02*
G75*
G03*
X11335220Y-2587752I-50000J0D01*
G01*
X11589220Y-2587752D02*
G75*
G03*
X11589220Y-2587752I-50000J0D01*
G01*
X11843220Y-2587752D02*
G75*
G03*
X11843220Y-2587752I-50000J0D01*
G01*
X3105620Y-2994152D02*
G75*
G03*
X3105620Y-2994152I-50000J0D01*
G01*
X3105620Y-3248152D02*
G75*
G03*
X3105620Y-3248152I-50000J0D01*
G01*
X3105620Y-3502152D02*
G75*
G03*
X3105620Y-3502152I-50000J0D01*
G01*
X3105620Y-3756152D02*
G75*
G03*
X3105620Y-3756152I-50000J0D01*
G01*
X3359620Y-2994152D02*
G75*
G03*
X3359620Y-2994152I-50000J0D01*
G01*
X3359620Y-3248152D02*
G75*
G03*
X3359620Y-3248152I-50000J0D01*
G01*
X3359620Y-3502152D02*
G75*
G03*
X3359620Y-3502152I-50000J0D01*
G01*
X3359620Y-3756152D02*
G75*
G03*
X3359620Y-3756152I-50000J0D01*
G01*
X12605220Y-4162552D02*
G75*
G03*
X12605220Y-4162552I-50000J0D01*
G01*
X12859220Y-4162552D02*
G75*
G03*
X12859220Y-4162552I-50000J0D01*
G01*
X13113220Y-4162552D02*
G75*
G03*
X13113220Y-4162552I-50000J0D01*
G01*
X3816820Y-4619752D02*
G75*
G03*
X3816820Y-4619752I-50000J0D01*
G01*
X4070820Y-4619752D02*
G75*
G03*
X4070820Y-4619752I-50000J0D01*
G01*
X4324820Y-4619752D02*
G75*
G03*
X4324820Y-4619752I-50000J0D01*
G01*
X4578820Y-4619752D02*
G75*
G03*
X4578820Y-4619752I-50000J0D01*
G01*
X10166820Y-2600452D02*
G75*
G03*
X10166820Y-2600452I-50000J0D01*
G01*
X10420820Y-2600452D02*
G75*
G03*
X10420820Y-2600452I-50000J0D01*
G01*
X10674820Y-2600452D02*
G75*
G03*
X10674820Y-2600452I-50000J0D01*
G01*
D12*
X3034748Y-5291166D02*
X3034748Y-4991166D01*
X3106177Y-4991166D01*
X3149034Y-5005452D01*
X3177606Y-5034024D01*
X3191891Y-5062595D01*
X3206177Y-5119738D01*
X3206177Y-5162595D01*
X3191891Y-5219738D01*
X3177606Y-5248309D01*
X3149034Y-5276881D01*
X3106177Y-5291166D01*
X3034748Y-5291166D01*
X3334748Y-5291166D02*
X3334748Y-5091166D01*
X3334748Y-5148309D02*
X3349034Y-5119738D01*
X3363320Y-5105452D01*
X3391891Y-5091166D01*
X3420463Y-5091166D01*
X3520463Y-5291166D02*
X3520463Y-5091166D01*
X3520463Y-4991166D02*
X3506177Y-5005452D01*
X3520463Y-5019738D01*
X3534748Y-5005452D01*
X3520463Y-4991166D01*
X3520463Y-5019738D01*
X3706177Y-5291166D02*
X3677606Y-5276881D01*
X3663320Y-5248309D01*
X3663320Y-4991166D01*
X3863320Y-5291166D02*
X3834748Y-5276881D01*
X3820463Y-5248309D01*
X3820463Y-4991166D01*
X4206177Y-5291166D02*
X4206177Y-4991166D01*
X4306177Y-5205452D01*
X4406177Y-4991166D01*
X4406177Y-5291166D01*
X4677606Y-5291166D02*
X4677606Y-5134024D01*
X4663320Y-5105452D01*
X4634748Y-5091166D01*
X4577606Y-5091166D01*
X4549034Y-5105452D01*
X4677606Y-5276881D02*
X4649034Y-5291166D01*
X4577606Y-5291166D01*
X4549034Y-5276881D01*
X4534748Y-5248309D01*
X4534748Y-5219738D01*
X4549034Y-5191166D01*
X4577606Y-5176881D01*
X4649034Y-5176881D01*
X4677606Y-5162595D01*
X4820463Y-5091166D02*
X4820463Y-5391166D01*
X4820463Y-5105452D02*
X4849034Y-5091166D01*
X4906177Y-5091166D01*
X4934748Y-5105452D01*
X4949034Y-5119738D01*
X4963320Y-5148309D01*
X4963320Y-5234024D01*
X4949034Y-5262595D01*
X4934748Y-5276881D01*
X4906177Y-5291166D01*
X4849034Y-5291166D01*
X4820463Y-5276881D01*
X5091891Y-5262595D02*
X5106177Y-5276881D01*
X5091891Y-5291166D01*
X5077606Y-5276881D01*
X5091891Y-5262595D01*
X5091891Y-5291166D01*
X5091891Y-5105452D02*
X5106177Y-5119738D01*
X5091891Y-5134024D01*
X5077606Y-5119738D01*
X5091891Y-5105452D01*
X5091891Y-5134024D01*
X2668320Y-5745452D02*
X2748320Y-5825452D01*
X2748320Y-5745452D02*
X2668320Y-5825452D01*
X3091891Y-5621166D02*
X3120463Y-5621166D01*
X3149034Y-5635452D01*
X3163320Y-5649738D01*
X3177606Y-5678309D01*
X3191891Y-5735452D01*
X3191891Y-5806881D01*
X3177606Y-5864023D01*
X3163320Y-5892595D01*
X3149034Y-5906881D01*
X3120463Y-5921166D01*
X3091891Y-5921166D01*
X3063320Y-5906881D01*
X3049034Y-5892595D01*
X3034748Y-5864023D01*
X3020463Y-5806881D01*
X3020463Y-5735452D01*
X3034748Y-5678309D01*
X3049034Y-5649738D01*
X3063320Y-5635452D01*
X3091891Y-5621166D01*
X3320463Y-5892595D02*
X3334748Y-5906881D01*
X3320463Y-5921166D01*
X3306177Y-5906881D01*
X3320463Y-5892595D01*
X3320463Y-5921166D01*
X3506177Y-5749738D02*
X3477606Y-5735452D01*
X3463320Y-5721166D01*
X3449034Y-5692595D01*
X3449034Y-5678309D01*
X3463320Y-5649738D01*
X3477606Y-5635452D01*
X3506177Y-5621166D01*
X3563320Y-5621166D01*
X3591891Y-5635452D01*
X3606177Y-5649738D01*
X3620463Y-5678309D01*
X3620463Y-5692595D01*
X3606177Y-5721166D01*
X3591891Y-5735452D01*
X3563320Y-5749738D01*
X3506177Y-5749738D01*
X3477606Y-5764023D01*
X3463320Y-5778309D01*
X3449034Y-5806881D01*
X3449034Y-5864023D01*
X3463320Y-5892595D01*
X3477606Y-5906881D01*
X3506177Y-5921166D01*
X3563320Y-5921166D01*
X3591891Y-5906881D01*
X3606177Y-5892595D01*
X3620463Y-5864023D01*
X3620463Y-5806881D01*
X3606177Y-5778309D01*
X3591891Y-5764023D01*
X3563320Y-5749738D01*
X3806177Y-5621166D02*
X3834748Y-5621166D01*
X3863320Y-5635452D01*
X3877606Y-5649738D01*
X3891891Y-5678309D01*
X3906177Y-5735452D01*
X3906177Y-5806881D01*
X3891891Y-5864023D01*
X3877606Y-5892595D01*
X3863320Y-5906881D01*
X3834748Y-5921166D01*
X3806177Y-5921166D01*
X3777606Y-5906881D01*
X3763320Y-5892595D01*
X3749034Y-5864023D01*
X3734748Y-5806881D01*
X3734748Y-5735452D01*
X3749034Y-5678309D01*
X3763320Y-5649738D01*
X3777606Y-5635452D01*
X3806177Y-5621166D01*
X4034748Y-5921166D02*
X4034748Y-5721166D01*
X4034748Y-5749738D02*
X4049034Y-5735452D01*
X4077606Y-5721166D01*
X4120463Y-5721166D01*
X4149034Y-5735452D01*
X4163320Y-5764023D01*
X4163320Y-5921166D01*
X4163320Y-5764023D02*
X4177606Y-5735452D01*
X4206177Y-5721166D01*
X4249034Y-5721166D01*
X4277606Y-5735452D01*
X4291891Y-5764023D01*
X4291891Y-5921166D01*
X4434748Y-5921166D02*
X4434748Y-5721166D01*
X4434748Y-5749738D02*
X4449034Y-5735452D01*
X4477606Y-5721166D01*
X4520463Y-5721166D01*
X4549034Y-5735452D01*
X4563320Y-5764023D01*
X4563320Y-5921166D01*
X4563320Y-5764023D02*
X4577606Y-5735452D01*
X4606177Y-5721166D01*
X4649034Y-5721166D01*
X4677606Y-5735452D01*
X4691891Y-5764023D01*
X4691891Y-5921166D01*
X5277606Y-5606881D02*
X5020463Y-5992595D01*
X5663320Y-5621166D02*
X5691891Y-5621166D01*
X5720463Y-5635452D01*
X5734748Y-5649738D01*
X5749034Y-5678309D01*
X5763320Y-5735452D01*
X5763320Y-5806881D01*
X5749034Y-5864023D01*
X5734748Y-5892595D01*
X5720463Y-5906881D01*
X5691891Y-5921166D01*
X5663320Y-5921166D01*
X5634748Y-5906881D01*
X5620463Y-5892595D01*
X5606177Y-5864023D01*
X5591891Y-5806881D01*
X5591891Y-5735452D01*
X5606177Y-5678309D01*
X5620463Y-5649738D01*
X5634748Y-5635452D01*
X5663320Y-5621166D01*
X5891891Y-5892595D02*
X5906177Y-5906881D01*
X5891891Y-5921166D01*
X5877606Y-5906881D01*
X5891891Y-5892595D01*
X5891891Y-5921166D01*
X6091891Y-5621166D02*
X6120463Y-5621166D01*
X6149034Y-5635452D01*
X6163320Y-5649738D01*
X6177606Y-5678309D01*
X6191891Y-5735452D01*
X6191891Y-5806881D01*
X6177606Y-5864023D01*
X6163320Y-5892595D01*
X6149034Y-5906881D01*
X6120463Y-5921166D01*
X6091891Y-5921166D01*
X6063320Y-5906881D01*
X6049034Y-5892595D01*
X6034748Y-5864023D01*
X6020463Y-5806881D01*
X6020463Y-5735452D01*
X6034748Y-5678309D01*
X6049034Y-5649738D01*
X6063320Y-5635452D01*
X6091891Y-5621166D01*
X6291891Y-5621166D02*
X6477606Y-5621166D01*
X6377606Y-5735452D01*
X6420463Y-5735452D01*
X6449034Y-5749738D01*
X6463320Y-5764023D01*
X6477606Y-5792595D01*
X6477606Y-5864023D01*
X6463320Y-5892595D01*
X6449034Y-5906881D01*
X6420463Y-5921166D01*
X6334748Y-5921166D01*
X6306177Y-5906881D01*
X6291891Y-5892595D01*
X6763320Y-5921166D02*
X6591891Y-5921166D01*
X6677606Y-5921166D02*
X6677606Y-5621166D01*
X6649034Y-5664023D01*
X6620463Y-5692595D01*
X6591891Y-5706881D01*
X6877606Y-5621166D02*
X6877606Y-5678309D01*
X6991891Y-5621166D02*
X6991891Y-5678309D01*
X7434748Y-6035452D02*
X7420463Y-6021166D01*
X7391891Y-5978309D01*
X7377606Y-5949738D01*
X7363320Y-5906881D01*
X7349034Y-5835452D01*
X7349034Y-5778309D01*
X7363320Y-5706881D01*
X7377606Y-5664023D01*
X7391891Y-5635452D01*
X7420463Y-5592595D01*
X7434748Y-5578309D01*
X7520463Y-5621166D02*
X7706177Y-5621166D01*
X7606177Y-5735452D01*
X7649034Y-5735452D01*
X7677606Y-5749738D01*
X7691891Y-5764023D01*
X7706177Y-5792595D01*
X7706177Y-5864023D01*
X7691891Y-5892595D01*
X7677606Y-5906881D01*
X7649034Y-5921166D01*
X7563320Y-5921166D01*
X7534748Y-5906881D01*
X7520463Y-5892595D01*
X7820463Y-5649738D02*
X7834748Y-5635452D01*
X7863320Y-5621166D01*
X7934748Y-5621166D01*
X7963320Y-5635452D01*
X7977606Y-5649738D01*
X7991891Y-5678309D01*
X7991891Y-5706881D01*
X7977606Y-5749738D01*
X7806177Y-5921166D01*
X7991891Y-5921166D01*
X8349034Y-5921166D02*
X8349034Y-5621166D01*
X8477606Y-5921166D02*
X8477606Y-5764023D01*
X8463320Y-5735452D01*
X8434748Y-5721166D01*
X8391891Y-5721166D01*
X8363320Y-5735452D01*
X8349034Y-5749738D01*
X8663320Y-5921166D02*
X8634748Y-5906881D01*
X8620463Y-5892595D01*
X8606177Y-5864023D01*
X8606177Y-5778309D01*
X8620463Y-5749738D01*
X8634748Y-5735452D01*
X8663320Y-5721166D01*
X8706177Y-5721166D01*
X8734748Y-5735452D01*
X8749034Y-5749738D01*
X8763320Y-5778309D01*
X8763320Y-5864023D01*
X8749034Y-5892595D01*
X8734748Y-5906881D01*
X8706177Y-5921166D01*
X8663320Y-5921166D01*
X8934748Y-5921166D02*
X8906177Y-5906881D01*
X8891891Y-5878309D01*
X8891891Y-5621166D01*
X9163320Y-5906881D02*
X9134748Y-5921166D01*
X9077606Y-5921166D01*
X9049034Y-5906881D01*
X9034748Y-5878309D01*
X9034748Y-5764023D01*
X9049034Y-5735452D01*
X9077606Y-5721166D01*
X9134748Y-5721166D01*
X9163320Y-5735452D01*
X9177606Y-5764023D01*
X9177606Y-5792595D01*
X9034748Y-5821166D01*
X9291891Y-5906881D02*
X9320463Y-5921166D01*
X9377606Y-5921166D01*
X9406177Y-5906881D01*
X9420463Y-5878309D01*
X9420463Y-5864023D01*
X9406177Y-5835452D01*
X9377606Y-5821166D01*
X9334748Y-5821166D01*
X9306177Y-5806881D01*
X9291891Y-5778309D01*
X9291891Y-5764023D01*
X9306177Y-5735452D01*
X9334748Y-5721166D01*
X9377606Y-5721166D01*
X9406177Y-5735452D01*
X9520463Y-6035452D02*
X9534748Y-6021166D01*
X9563320Y-5978309D01*
X9577606Y-5949738D01*
X9591891Y-5906881D01*
X9606177Y-5835452D01*
X9606177Y-5778309D01*
X9591891Y-5706881D01*
X9577606Y-5664023D01*
X9563320Y-5635452D01*
X9534748Y-5592595D01*
X9520463Y-5578309D01*
X2748320Y-6181452D02*
G75*
G03*
X2748320Y-6181452I-50000J0D01*
G01*
X3191891Y-6317166D02*
X3020463Y-6317166D01*
X3106177Y-6317166D02*
X3106177Y-6017166D01*
X3077606Y-6060023D01*
X3049034Y-6088595D01*
X3020463Y-6102881D01*
X3320463Y-6288595D02*
X3334748Y-6302881D01*
X3320463Y-6317166D01*
X3306177Y-6302881D01*
X3320463Y-6288595D01*
X3320463Y-6317166D01*
X3520463Y-6017166D02*
X3549034Y-6017166D01*
X3577606Y-6031452D01*
X3591891Y-6045738D01*
X3606177Y-6074309D01*
X3620463Y-6131452D01*
X3620463Y-6202881D01*
X3606177Y-6260023D01*
X3591891Y-6288595D01*
X3577606Y-6302881D01*
X3549034Y-6317166D01*
X3520463Y-6317166D01*
X3491891Y-6302881D01*
X3477606Y-6288595D01*
X3463320Y-6260023D01*
X3449034Y-6202881D01*
X3449034Y-6131452D01*
X3463320Y-6074309D01*
X3477606Y-6045738D01*
X3491891Y-6031452D01*
X3520463Y-6017166D01*
X3806177Y-6017166D02*
X3834748Y-6017166D01*
X3863320Y-6031452D01*
X3877606Y-6045738D01*
X3891891Y-6074309D01*
X3906177Y-6131452D01*
X3906177Y-6202881D01*
X3891891Y-6260023D01*
X3877606Y-6288595D01*
X3863320Y-6302881D01*
X3834748Y-6317166D01*
X3806177Y-6317166D01*
X3777606Y-6302881D01*
X3763320Y-6288595D01*
X3749034Y-6260023D01*
X3734748Y-6202881D01*
X3734748Y-6131452D01*
X3749034Y-6074309D01*
X3763320Y-6045738D01*
X3777606Y-6031452D01*
X3806177Y-6017166D01*
X4034748Y-6317166D02*
X4034748Y-6117166D01*
X4034748Y-6145738D02*
X4049034Y-6131452D01*
X4077606Y-6117166D01*
X4120463Y-6117166D01*
X4149034Y-6131452D01*
X4163320Y-6160023D01*
X4163320Y-6317166D01*
X4163320Y-6160023D02*
X4177606Y-6131452D01*
X4206177Y-6117166D01*
X4249034Y-6117166D01*
X4277606Y-6131452D01*
X4291891Y-6160023D01*
X4291891Y-6317166D01*
X4434748Y-6317166D02*
X4434748Y-6117166D01*
X4434748Y-6145738D02*
X4449034Y-6131452D01*
X4477606Y-6117166D01*
X4520463Y-6117166D01*
X4549034Y-6131452D01*
X4563320Y-6160023D01*
X4563320Y-6317166D01*
X4563320Y-6160023D02*
X4577606Y-6131452D01*
X4606177Y-6117166D01*
X4649034Y-6117166D01*
X4677606Y-6131452D01*
X4691891Y-6160023D01*
X4691891Y-6317166D01*
X5277606Y-6002881D02*
X5020463Y-6388595D01*
X5663320Y-6017166D02*
X5691891Y-6017166D01*
X5720463Y-6031452D01*
X5734748Y-6045738D01*
X5749034Y-6074309D01*
X5763320Y-6131452D01*
X5763320Y-6202881D01*
X5749034Y-6260023D01*
X5734748Y-6288595D01*
X5720463Y-6302881D01*
X5691891Y-6317166D01*
X5663320Y-6317166D01*
X5634748Y-6302881D01*
X5620463Y-6288595D01*
X5606177Y-6260023D01*
X5591891Y-6202881D01*
X5591891Y-6131452D01*
X5606177Y-6074309D01*
X5620463Y-6045738D01*
X5634748Y-6031452D01*
X5663320Y-6017166D01*
X5891891Y-6288595D02*
X5906177Y-6302881D01*
X5891891Y-6317166D01*
X5877606Y-6302881D01*
X5891891Y-6288595D01*
X5891891Y-6317166D01*
X6091891Y-6017166D02*
X6120463Y-6017166D01*
X6149034Y-6031452D01*
X6163320Y-6045738D01*
X6177606Y-6074309D01*
X6191891Y-6131452D01*
X6191891Y-6202881D01*
X6177606Y-6260023D01*
X6163320Y-6288595D01*
X6149034Y-6302881D01*
X6120463Y-6317166D01*
X6091891Y-6317166D01*
X6063320Y-6302881D01*
X6049034Y-6288595D01*
X6034748Y-6260023D01*
X6020463Y-6202881D01*
X6020463Y-6131452D01*
X6034748Y-6074309D01*
X6049034Y-6045738D01*
X6063320Y-6031452D01*
X6091891Y-6017166D01*
X6291891Y-6017166D02*
X6477606Y-6017166D01*
X6377606Y-6131452D01*
X6420463Y-6131452D01*
X6449034Y-6145738D01*
X6463320Y-6160023D01*
X6477606Y-6188595D01*
X6477606Y-6260023D01*
X6463320Y-6288595D01*
X6449034Y-6302881D01*
X6420463Y-6317166D01*
X6334748Y-6317166D01*
X6306177Y-6302881D01*
X6291891Y-6288595D01*
X6620463Y-6317166D02*
X6677606Y-6317166D01*
X6706177Y-6302881D01*
X6720463Y-6288595D01*
X6749034Y-6245738D01*
X6763320Y-6188595D01*
X6763320Y-6074309D01*
X6749034Y-6045738D01*
X6734748Y-6031452D01*
X6706177Y-6017166D01*
X6649034Y-6017166D01*
X6620463Y-6031452D01*
X6606177Y-6045738D01*
X6591891Y-6074309D01*
X6591891Y-6145738D01*
X6606177Y-6174309D01*
X6620463Y-6188595D01*
X6649034Y-6202881D01*
X6706177Y-6202881D01*
X6734748Y-6188595D01*
X6749034Y-6174309D01*
X6763320Y-6145738D01*
X6877606Y-6017166D02*
X6877606Y-6074309D01*
X6991891Y-6017166D02*
X6991891Y-6074309D01*
X7434748Y-6431452D02*
X7420463Y-6417166D01*
X7391891Y-6374309D01*
X7377606Y-6345738D01*
X7363320Y-6302881D01*
X7349034Y-6231452D01*
X7349034Y-6174309D01*
X7363320Y-6102881D01*
X7377606Y-6060023D01*
X7391891Y-6031452D01*
X7420463Y-5988595D01*
X7434748Y-5974309D01*
X7520463Y-6017166D02*
X7720463Y-6017166D01*
X7591891Y-6317166D01*
X7963320Y-6017166D02*
X7906177Y-6017166D01*
X7877606Y-6031452D01*
X7863320Y-6045738D01*
X7834748Y-6088595D01*
X7820463Y-6145738D01*
X7820463Y-6260023D01*
X7834748Y-6288595D01*
X7849034Y-6302881D01*
X7877606Y-6317166D01*
X7934748Y-6317166D01*
X7963320Y-6302881D01*
X7977606Y-6288595D01*
X7991891Y-6260023D01*
X7991891Y-6188595D01*
X7977606Y-6160023D01*
X7963320Y-6145738D01*
X7934748Y-6131452D01*
X7877606Y-6131452D01*
X7849034Y-6145738D01*
X7834748Y-6160023D01*
X7820463Y-6188595D01*
X8349034Y-6317166D02*
X8349034Y-6017166D01*
X8477606Y-6317166D02*
X8477606Y-6160023D01*
X8463320Y-6131452D01*
X8434748Y-6117166D01*
X8391891Y-6117166D01*
X8363320Y-6131452D01*
X8349034Y-6145738D01*
X8663320Y-6317166D02*
X8634748Y-6302881D01*
X8620463Y-6288595D01*
X8606177Y-6260023D01*
X8606177Y-6174309D01*
X8620463Y-6145738D01*
X8634748Y-6131452D01*
X8663320Y-6117166D01*
X8706177Y-6117166D01*
X8734748Y-6131452D01*
X8749034Y-6145738D01*
X8763320Y-6174309D01*
X8763320Y-6260023D01*
X8749034Y-6288595D01*
X8734748Y-6302881D01*
X8706177Y-6317166D01*
X8663320Y-6317166D01*
X8934748Y-6317166D02*
X8906177Y-6302881D01*
X8891891Y-6274309D01*
X8891891Y-6017166D01*
X9163320Y-6302881D02*
X9134748Y-6317166D01*
X9077606Y-6317166D01*
X9049034Y-6302881D01*
X9034748Y-6274309D01*
X9034748Y-6160023D01*
X9049034Y-6131452D01*
X9077606Y-6117166D01*
X9134748Y-6117166D01*
X9163320Y-6131452D01*
X9177606Y-6160023D01*
X9177606Y-6188595D01*
X9034748Y-6217166D01*
X9291891Y-6302881D02*
X9320463Y-6317166D01*
X9377606Y-6317166D01*
X9406177Y-6302881D01*
X9420463Y-6274309D01*
X9420463Y-6260023D01*
X9406177Y-6231452D01*
X9377606Y-6217166D01*
X9334748Y-6217166D01*
X9306177Y-6202881D01*
X9291891Y-6174309D01*
X9291891Y-6160023D01*
X9306177Y-6131452D01*
X9334748Y-6117166D01*
X9377606Y-6117166D01*
X9406177Y-6131452D01*
X9520463Y-6431452D02*
X9534748Y-6417166D01*
X9563320Y-6374309D01*
X9577606Y-6345738D01*
X9591891Y-6302881D01*
X9606177Y-6231452D01*
X9606177Y-6174309D01*
X9591891Y-6102881D01*
X9577606Y-6060023D01*
X9563320Y-6031452D01*
X9534748Y-5988595D01*
X9520463Y-5974309D01*
M02*
