%FSLAX45Y45*%
G04 Gerber Fmt 4.5, Leading zero omitted, Abs format (unit mm)*
G04 Created by KiCad (PCBNEW (5.1.6)-1) date 2020-11-13 23:51:01*
%MOMM*%
%LPD*%
G01*
G04 APERTURE LIST*
%TA.AperFunction,Profile*%
%ADD10C,0.050000*%
%TD*%
%ADD11C,0.200000*%
%ADD12C,0.300000*%
G04 APERTURE END LIST*
D10*
X2750820Y-4822952D02*
X2750820Y-2232152D01*
X13469620Y-4822952D02*
X2750820Y-4822952D01*
X13469620Y-4467352D02*
X13469620Y-4822952D01*
X13469620Y-2232152D02*
X13469620Y-4467352D01*
X2750820Y-2232152D02*
X13469620Y-2232152D01*
D11*
D12*
X3034748Y-5291166D02*
X3034748Y-4991166D01*
X3106177Y-4991166D01*
X3149034Y-5005452D01*
X3177606Y-5034024D01*
X3191891Y-5062595D01*
X3206177Y-5119738D01*
X3206177Y-5162595D01*
X3191891Y-5219738D01*
X3177606Y-5248309D01*
X3149034Y-5276881D01*
X3106177Y-5291166D01*
X3034748Y-5291166D01*
X3334748Y-5291166D02*
X3334748Y-5091166D01*
X3334748Y-5148309D02*
X3349034Y-5119738D01*
X3363320Y-5105452D01*
X3391891Y-5091166D01*
X3420463Y-5091166D01*
X3520463Y-5291166D02*
X3520463Y-5091166D01*
X3520463Y-4991166D02*
X3506177Y-5005452D01*
X3520463Y-5019738D01*
X3534748Y-5005452D01*
X3520463Y-4991166D01*
X3520463Y-5019738D01*
X3706177Y-5291166D02*
X3677606Y-5276881D01*
X3663320Y-5248309D01*
X3663320Y-4991166D01*
X3863320Y-5291166D02*
X3834748Y-5276881D01*
X3820463Y-5248309D01*
X3820463Y-4991166D01*
X4206177Y-5291166D02*
X4206177Y-4991166D01*
X4306177Y-5205452D01*
X4406177Y-4991166D01*
X4406177Y-5291166D01*
X4677606Y-5291166D02*
X4677606Y-5134024D01*
X4663320Y-5105452D01*
X4634748Y-5091166D01*
X4577606Y-5091166D01*
X4549034Y-5105452D01*
X4677606Y-5276881D02*
X4649034Y-5291166D01*
X4577606Y-5291166D01*
X4549034Y-5276881D01*
X4534748Y-5248309D01*
X4534748Y-5219738D01*
X4549034Y-5191166D01*
X4577606Y-5176881D01*
X4649034Y-5176881D01*
X4677606Y-5162595D01*
X4820463Y-5091166D02*
X4820463Y-5391166D01*
X4820463Y-5105452D02*
X4849034Y-5091166D01*
X4906177Y-5091166D01*
X4934748Y-5105452D01*
X4949034Y-5119738D01*
X4963320Y-5148309D01*
X4963320Y-5234024D01*
X4949034Y-5262595D01*
X4934748Y-5276881D01*
X4906177Y-5291166D01*
X4849034Y-5291166D01*
X4820463Y-5276881D01*
X5091891Y-5262595D02*
X5106177Y-5276881D01*
X5091891Y-5291166D01*
X5077606Y-5276881D01*
X5091891Y-5262595D01*
X5091891Y-5291166D01*
X5091891Y-5105452D02*
X5106177Y-5119738D01*
X5091891Y-5134024D01*
X5077606Y-5119738D01*
X5091891Y-5105452D01*
X5091891Y-5134024D01*
M02*
