M48
; DRILL file {KiCad (5.1.6)-1} date 11/15/20 20:59:01
; FORMAT={-:-/ absolute / metric / decimal}
; #@! TF.CreationDate,2020-11-15T20:59:01+05:30
; #@! TF.GenerationSoftware,Kicad,Pcbnew,(5.1.6)-1
FMAT,2
METRIC
T1C0.800
T2C1.000
%
G90
G05
T1
X60.96Y18.288
X60.96Y10.668
X63.5Y18.288
X63.5Y10.668
X66.04Y18.288
X66.04Y10.668
X68.58Y18.288
X68.58Y10.668
X71.12Y18.288
X71.12Y10.668
X73.66Y18.288
X73.66Y10.668
X76.2Y18.288
X76.2Y10.668
X78.74Y18.288
X78.74Y10.668
X85.344Y18.288
X85.344Y10.668
X87.884Y18.288
X87.884Y10.668
X90.424Y18.288
X90.424Y10.668
X92.964Y18.288
X92.964Y10.668
X95.504Y18.288
X95.504Y10.668
X98.044Y18.288
X98.044Y10.668
X100.584Y18.288
X100.584Y10.668
X103.124Y18.288
X103.124Y10.668
T2
X73.66Y22.225
X76.2Y22.225
X78.74Y22.225
X23.368Y2.032
X25.908Y2.032
X28.448Y2.032
X30.988Y2.032
X33.528Y2.032
X36.068Y2.032
X38.608Y2.032
X41.148Y2.032
X60.96Y6.604
X63.5Y6.604
X66.04Y6.604
X48.768Y2.032
X51.308Y2.032
X15.748Y22.098
X15.748Y6.858
X18.288Y22.098
X18.288Y6.858
X20.828Y22.098
X20.828Y6.858
X23.368Y22.098
X23.368Y6.858
X25.908Y22.098
X25.908Y6.858
X28.448Y22.098
X28.448Y6.858
X30.988Y22.098
X30.988Y6.858
X33.528Y22.098
X33.528Y6.858
X36.068Y22.098
X36.068Y6.858
X38.608Y22.098
X38.608Y6.858
X41.148Y22.098
X41.148Y6.858
X43.688Y22.098
X43.688Y6.858
X46.228Y22.098
X46.228Y6.858
X48.768Y22.098
X48.768Y6.858
X51.308Y22.098
X51.308Y6.858
X10.16Y2.032
X12.7Y2.032
X15.24Y2.032
X17.78Y2.032
X73.66Y6.604
X76.2Y6.604
X78.74Y6.604
X85.344Y22.352
X87.884Y22.352
X90.424Y22.352
X60.96Y22.225
X63.5Y22.225
X66.04Y22.225
X85.344Y6.604
X87.884Y6.604
X90.424Y6.604
X98.044Y22.352
X100.584Y22.352
X103.124Y22.352
X3.048Y18.288
X3.048Y15.748
X3.048Y13.208
X3.048Y10.668
X5.588Y18.288
X5.588Y15.748
X5.588Y13.208
X5.588Y10.668
X98.044Y6.604
X100.584Y6.604
X103.124Y6.604
T0
M30
